#!OML:ASF H:\Dans Jumps\Project 1\Capture day 1\Session 1\subject.ASF
:FULLY-SPECIFIED
:DEGREES
608
root 0.661188 17.7381 6.76369 6.55389 -0.587693 -1.2021
lowerback -1.78805 -0.115129 -0.545681
upperback 2.30998 -0.185601 1.65364
thorax 3.38464 -0.128889 1.99925
lowerneck -10.7074 -0.141285 -1.80276
upperneck 17.2667 0.198542 -0.345715
head 7.04582 -0.0521316 0.205159
rclavicle 1.78906e-015 -6.75868e-015
rhumerus -27.2891 -15.9485 -78.3578
rradius 23.2868
rwrist 34.3667
rhand -19.5365 -25.5103
rfingers 7.12502
rthumb 6.78728 -55.3815
lclavicle 1.78906e-015 -6.75868e-015
lhumerus -23.3384 3.98899 85.4155
lradius 17.2194
lwrist 1.30472
lhand -25.7426 -5.50368
lfingers 7.12502
lthumb 0.794322 24.4746
rfemur -12.9818 -2.71236 19.3576
rtibia 20.1096
rfoot -12.3067 0.0518084
rtoes 13.1051
lfemur -12.7954 7.22523 -18.2033
ltibia 17.2798
lfoot -9.08314 3.09326
ltoes 0.820004
609
root 0.661299 17.7382 6.76225 6.54969 -0.594 -1.19854
lowerback -1.79445 -0.116973 -0.556842
upperback 2.31274 -0.187741 1.65382
thorax 3.39126 -0.130301 2.00561
lowerneck -10.701 -0.138602 -1.79649
upperneck 17.1118 0.200452 -0.350744
head 6.99456 -0.0500007 0.202559
rclavicle 4.47266e-016 -1.82882e-014
rhumerus -27.282 -15.968 -78.3596
rradius 23.276
rwrist 34.3922
rhand -19.5369 -25.5073
rfingers 7.12502
rthumb 6.78685 -55.3785
lclavicle 4.47266e-016 -1.82882e-014
lhumerus -23.3262 4.01556 85.4168
lradius 17.2041
lwrist 1.28769
lhand -25.7424 -5.50823
lfingers 7.12502
lthumb 0.79456 24.47
rfemur -12.9782 -2.69883 19.352
rtibia 20.1013
rfoot -12.3009 0.045495
rtoes 13.1077
lfemur -12.7898 7.22402 -18.2068
ltibia 17.2705
lfoot -9.07429 3.09636
ltoes 0.825227
610
root 0.661424 17.7383 6.76074 6.54618 -0.60269 -1.20336
lowerback -1.80164 -0.117998 -0.559856
upperback 2.31553 -0.189146 1.65654
thorax 3.39829 -0.131181 2.01006
lowerneck -10.6984 -0.136158 -1.78907
upperneck 16.9697 0.201948 -0.355405
head 6.9482 -0.0480743 0.199861
rclavicle 2.98177e-015 3.18055e-015
rhumerus -27.2753 -15.978 -78.364
rradius 23.2716
rwrist 34.4086
rhand -19.5371 -25.5104
rfingers 7.12502
rthumb 6.7867 -55.3816
lclavicle 2.98177e-015 3.18055e-015
lhumerus -23.3152 4.03382 85.4226
lradius 17.1935
lwrist 1.27823
lhand -25.7353 -5.51035
lfingers 7.12502
lthumb 0.801406 24.4679
rfemur -12.9747 -2.68285 19.3558
rtibia 20.0902
rfoot -12.293 0.0396002
rtoes 13.1102
lfemur -12.7859 7.22149 -18.201
ltibia 17.2631
lfoot -9.06536 3.10409
ltoes 0.83294
611
root 0.661544 17.7384 6.75927 6.54231 -0.613408 -1.20931
lowerback -1.80913 -0.118796 -0.562707
upperback 2.31745 -0.190277 1.66033
thorax 3.40459 -0.131925 2.01553
lowerneck -10.6877 -0.136697 -1.79167
upperneck 16.8325 0.19935 -0.350818
head 6.90208 -0.0479784 0.201439
rclavicle -4.96962e-015 -3.97569e-016
rhumerus -27.2718 -15.9803 -78.3689
rradius 23.2734
rwrist 34.4163
rhand -19.5357 -25.5204
rfingers 7.12502
rthumb 6.78807 -55.3916
lclavicle -4.96962e-015 -3.97569e-016
lhumerus -23.309 4.04561 85.4328
lradius 17.1888
lwrist 1.2708
lhand -25.7152 -5.48573
lfingers 7.12502
lthumb 0.820802 24.4924
rfemur -12.9699 -2.66544 19.3606
rtibia 20.0764
rfoot -12.2825 0.0355257
rtoes 13.1254
lfemur -12.7822 7.2195 -18.1941
ltibia 17.2578
lfoot -9.05662 3.1141
ltoes 0.836219
612
root 0.661689 17.7385 6.75792 6.53748 -0.625479 -1.21426
lowerback -1.81614 -0.118715 -0.565752
upperback 2.31836 -0.190197 1.66351
thorax 3.40953 -0.132046 2.02054
lowerneck -10.6658 -0.139415 -1.8011
upperneck 16.6961 0.193564 -0.339568
head 6.8543 -0.0492599 0.206004
rclavicle -1.98785e-015 -1.70955e-014
rhumerus -27.2728 -15.9787 -78.3737
rradius 23.2804
rwrist 34.4119
rhand -19.5358 -25.5309
rfingers 7.12502
rthumb 6.7879 -55.4021
lclavicle -1.98785e-015 -1.70955e-014
lhumerus -23.3057 4.04336 85.4477
lradius 17.189
lwrist 1.27004
lhand -25.6909 -5.45166
lfingers 7.12502
lthumb 0.844244 24.5264
rfemur -12.963 -2.6482 19.3639
rtibia 20.0603
rfoot -12.2714 0.0332294
rtoes 13.1499
lfemur -12.7781 7.21954 -18.1886
ltibia 17.2547
lfoot -9.05111 3.12348
ltoes 0.848181
613
root 0.661802 17.7387 6.75653 6.53341 -0.639832 -1.21983
lowerback -1.82181 -0.117482 -0.567912
upperback 2.31611 -0.188555 1.66624
thorax 3.41036 -0.131314 2.02464
lowerneck -10.633 -0.142687 -1.81017
upperneck 16.5621 0.186629 -0.327683
head 6.80543 -0.0510234 0.210607
rclavicle -1.63997e-015 -1.98785e-015
rhumerus -27.2817 -15.978 -78.3769
rradius 23.2926
rwrist 34.4056
rhand -19.5372 -25.5357
rfingers 7.12502
rthumb 6.78655 -55.407
lclavicle -1.63997e-015 -1.98785e-015
lhumerus -23.308 4.02589 85.4663
lradius 17.1959
lwrist 1.27738
lhand -25.6585 -5.40212
lfingers 7.12502
lthumb 0.875562 24.5758
rfemur -12.9575 -2.62397 19.3678
rtibia 20.0435
rfoot -12.2591 0.027427
rtoes 13.1814
lfemur -12.7751 7.22149 -18.1825
ltibia 17.2517
lfoot -9.045 3.13357
ltoes 0.85846
614
root 0.661996 17.7388 6.75517 6.53068 -0.654022 -1.22423
lowerback -1.82743 -0.116362 -0.568825
upperback 2.31129 -0.187028 1.6674
thorax 3.40851 -0.13055 2.02641
lowerneck -10.598 -0.144661 -1.81123
upperneck 16.4355 0.181039 -0.321216
head 6.75865 -0.0521707 0.21227
rclavicle 3.08116e-015 -8.74653e-015
rhumerus -27.2965 -15.9758 -78.3804
rradius 23.3095
rwrist 34.3914
rhand -19.5412 -25.5397
rfingers 7.12502
rthumb 6.78274 -55.411
lclavicle 3.08116e-015 -8.74653e-015
lhumerus -23.3152 3.99362 85.4877
lradius 17.2106
lwrist 1.2964
lhand -25.6291 -5.362
lfingers 7.12502
lthumb 0.903986 24.6158
rfemur -12.9533 -2.60141 19.37
rtibia 20.0267
rfoot -12.2472 0.0234125
rtoes 13.2231
lfemur -12.7732 7.22465 -18.1782
ltibia 17.2481
lfoot -9.03939 3.14213
ltoes 0.871524
615
root 0.662228 17.739 6.75382 6.52934 -0.669682 -1.22919
lowerback -1.83472 -0.114656 -0.567518
upperback 2.30702 -0.18477 1.66735
thorax 3.40811 -0.129362 2.02572
lowerneck -10.5716 -0.144016 -1.802
upperneck 16.3189 0.178657 -0.321316
head 6.71656 -0.051798 0.210415
rclavicle 3.77691e-015 2.78299e-015
rhumerus -27.3073 -15.9805 -78.3845
rradius 23.3245
rwrist 34.3799
rhand -19.5511 -25.5291
rfingers 7.12502
rthumb 6.77316 -55.4007
lclavicle 3.77691e-015 2.78299e-015
lhumerus -23.3222 3.94871 85.5116
lradius 17.234
lwrist 1.3267
lhand -25.5966 -5.33457
lfingers 7.12502
lthumb 0.93533 24.6431
rfemur -12.951 -2.57943 19.3728
rtibia 20.0101
rfoot -12.2362 0.0204307
rtoes 13.259
lfemur -12.7725 7.22922 -18.1738
ltibia 17.2445
lfoot -9.03383 3.15157
ltoes 0.883634
616
root 0.662538 17.7392 6.75254 6.53019 -0.686864 -1.23324
lowerback -1.84379 -0.112901 -0.565151
upperback 2.30174 -0.182441 1.6661
thorax 3.40767 -0.128089 2.0232
lowerneck -10.5578 -0.139989 -1.78145
upperneck 16.2194 0.180782 -0.329627
head 6.68223 -0.0494226 0.204472
rclavicle 3.62782e-015 -2.22639e-014
rhumerus -27.3175 -15.9846 -78.3895
rradius 23.3396
rwrist 34.3663
rhand -19.5584 -25.5142
rfingers 7.12502
rthumb 6.76608 -55.3861
lclavicle 3.62782e-015 -2.22639e-014
lhumerus -23.3307 3.89068 85.5386
lradius 17.2638
lwrist 1.3736
lhand -25.604 -5.36438
lfingers 7.12502
lthumb 0.928203 24.6133
rfemur -12.9513 -2.56132 19.3746
rtibia 19.9946
rfoot -12.2267 0.0207158
rtoes 13.2833
lfemur -12.7733 7.23482 -18.171
ltibia 17.2405
lfoot -9.02795 3.16237
ltoes 0.889401
617
root 0.662918 17.7394 6.75133 6.5327 -0.705512 -1.23888
lowerback -1.85449 -0.11136 -0.560424
upperback 2.29623 -0.180497 1.66537
thorax 3.40791 -0.126959 2.01987
lowerneck -10.555 -0.133261 -1.75802
upperneck 16.1374 0.186807 -0.339781
head 6.65543 -0.045312 0.197819
rclavicle 1.14301e-015 1.70955e-014
rhumerus -27.3234 -15.986 -78.3955
rradius 23.3523
rwrist 34.3516
rhand -19.5609 -25.5019
rfingers 7.12502
rthumb 6.76368 -55.3739
lclavicle 1.14301e-015 1.70955e-014
lhumerus -23.3396 3.82966 85.5678
lradius 17.2985
lwrist 1.42832
lhand -25.6173 -5.41054
lfingers 7.12502
lthumb 0.915352 24.5672
rfemur -12.9535 -2.54676 19.3782
rtibia 19.9803
rfoot -12.2183 0.0248544
rtoes 13.2942
lfemur -12.7751 7.24111 -18.1671
ltibia 17.2365
lfoot -9.02169 3.17452
ltoes 0.890919
618
root 0.66337 17.7396 6.7502 6.53592 -0.72712 -1.24344
lowerback -1.86514 -0.10957 -0.556798
upperback 2.28926 -0.178189 1.66529
thorax 3.40663 -0.125665 2.01784
lowerneck -10.5661 -0.123171 -1.72834
upperneck 16.0763 0.19811 -0.357434
head 6.63772 -0.0391012 0.188213
rclavicle -5.2181e-015 1.59028e-015
rhumerus -27.3309 -15.9822 -78.4002
rradius 23.3661
rwrist 34.3324
rhand -19.5614 -25.4879
rfingers 7.12502
rthumb 6.76326 -55.3599
lclavicle -5.2181e-015 1.59028e-015
lhumerus -23.3498 3.76835 85.5995
lradius 17.3342
lwrist 1.48958
lhand -25.6288 -5.45062
lfingers 7.12502
lthumb 0.904252 24.5272
rfemur -12.9568 -2.53656 19.3804
rtibia 19.9675
rfoot -12.2119 0.0348572
rtoes 13.2924
lfemur -12.7767 7.25055 -18.1649
ltibia 17.2327
lfoot -9.01626 3.18677
ltoes 0.892191
